<svg version="1.1" id="svg8" xmlns:cc="http://creativecommons.org/ns#" xmlns:dc="http://purl.org/dc/elements/1.1/" xmlns:inkscape="http://www.inkscape.org/namespaces/inkscape" xmlns:rdf="http://www.w3.org/1999/02/22-rdf-syntax-ns#" xmlns:sodipodi="http://sodipodi.sourceforge.net/DTD/sodipodi-0.dtd" xmlns:svg="http://www.w3.org/2000/svg" xmlns="http://www.w3.org/2000/svg" xmlns:xlink="http://www.w3.org/1999/xlink" x="0px" y="0px" viewBox="0 0 430.96 55.36" style="enable-background:new 0 0 430.96 55.36;" xml:space="preserve">
 <style type="text/css">
  .st0{fill:#FFFFFF;}
 </style>
 <g id="layer1" inkscape:groupmode="layer" inkscape:label="Capa 1">
  <path id="path2" class="st0" d="M392.07,0c-2.71,0-4.97,2.28-4.97,5.02c0,2.8,2.26,5.02,4.97,5.02c2.78,0,5.04-2.35,5.04-5.02
		C397.1,2.21,394.85,0,392.07,0z M39.54,2.36C29.27,3.63,19.35,5.5,9.4,8.38c-1.29,0.41-2.09,1.86-1.77,3.14
		c0.73,2.87,1.09,4.3,1.83,7.18c0.31,1.22,1.53,1.84,2.77,1.43C22.41,17,32.59,14.86,43.1,13.31c1.2-0.16,1.86-1.41,1.42-2.66
		c-0.93-2.63-1.4-3.95-2.36-6.56C41.76,2.97,40.66,2.24,39.54,2.36z M249.03,2.67c-2.58,0-7.49,1.43-9.75,3.13v41.84h9.75V2.67z
		 M358.99,2.67c-2.52,0-7.49,1.43-9.76,3.13v39.96c3.23,1.5,8.59,2.54,14.15,2.54c11.37,0,18.35-6.84,18.35-18.71
		c0-8.47-3.94-15.19-13.57-15.19c-3.04,0-6.39,1.3-9.17,3.72V2.67z M81.37,4.23c-4.72,0-8.72,0.52-14.02,1.31v42.1h15.89
		c8.66,0,16.28-5.08,16.28-12.71c0-5.8-2.52-9.39-8.4-11.08c3.81-1.5,5.95-4.24,5.95-8.34C97.07,8.34,90.09,4.23,81.37,4.23z
		 M81.37,12.45c4.07,0,5.95,1.89,5.95,4.56c0,2.8-1.81,4.44-5.69,4.44h-4.39v-8.67C78.59,12.58,80.01,12.45,81.37,12.45z
		 M189.65,14.34c-10.21,0-18.09,6-18.09,17.41c0,10.56,6.53,16.56,16.48,16.56c2.91,0,6.59-0.65,10.14-2.09l-1.74-7.82
		c-2.39,0.85-4.33,1.17-6.01,1.17c-6.14,0-8.59-3.2-8.59-8.41c0-5.15,2.65-8.54,9.18-8.54c1.03,0,2.84,0.26,3.94,0.59
		c1.48-1.63,2.84-4.5,3.23-7.76C195.08,14.73,192.5,14.34,189.65,14.34z M216.92,14.34c-9.88,0-16.86,6.52-16.86,16.95
		c0,10.3,6.59,17.01,16.86,17.01c10.21,0,16.86-6.52,16.86-17.01C233.78,21.12,227.19,14.34,216.92,14.34z M271.38,14.34
		c-9.88,0-16.86,6.52-16.86,16.95c0,10.3,6.59,17.01,16.86,17.01c10.21,0,16.86-6.52,16.86-17.01
		C288.24,21.12,281.65,14.34,271.38,14.34z M153.66,14.4c-5.36,0-11.95,1.5-16.02,4.24l-0.06,29.01h9.75V23.2
		c1.23-0.33,2.65-0.52,4.13-0.52c3.94,0,6.2,1.76,6.2,5.21v19.75h9.69v-23.2C167.36,18.12,161.09,14.4,153.66,14.4L153.66,14.4z
		 M308.21,14.4c-5.1,0-11.18,1.5-15.05,4.24l-0.06,29.01h9.75V23.2c1.23-0.33,2.65-0.52,4.13-0.52c3.88,0,6.08,1.76,6.08,5.21v19.75
		h9.63v-19.3c0-1.69-0.26-3.26-0.78-4.69c1.42-0.59,3.16-0.98,4.97-0.98c3.88,0,6.07,1.76,6.07,5.21v19.75h9.63v-23.2
		c0-6.26-5.49-10.04-12.53-10.04c-3.88,0-8.46,1.43-11.76,3.59C315.76,15.77,312.28,14.4,308.21,14.4L308.21,14.4z M392.13,14.4
		c-1.87,0-3.55,0.33-4.91,0.92v32.33h9.76V15.32C395.62,14.73,394,14.4,392.13,14.4L392.13,14.4z M117.05,14.47
		c-4.26,0-8.2,1.04-12.21,2.54l0.77,2.34c1.03,2.87,2.26,3.85,3.81,3.85c0.65,0,5.62-0.85,7.49-0.85c3.55,0,5.17,1.04,5.36,5.08
		c-10.66,0.33-19.64,2.61-19.64,11.93c0,6.19,5.62,9,12.41,9c7.62,0,13.24-1.44,16.73-4.11V27.11
		C131.79,17.99,126.36,14.47,117.05,14.47L117.05,14.47z M416.23,14.47c-4.27,0-8.2,1.04-12.21,2.54l0.77,2.34
		c1.03,2.87,2.26,3.85,3.81,3.85c0.65,0,5.62-0.85,7.49-0.85c3.55,0,5.17,1.04,5.36,5.08c-10.66,0.33-19.64,2.61-19.64,11.93
		c0,6.19,5.62,9,12.41,9c7.62,0,13.24-1.44,16.73-4.11V27.11C430.96,17.99,425.53,14.47,416.23,14.47L416.23,14.47z M48.13,18.31
		c-16.08,2.05-31.73,6.03-46.58,12.6c-1.08,0.51-1.73,1.87-1.5,3.08c0.58,3.07,0.87,4.61,1.47,7.69C1.77,42.99,3,43.59,4.21,43
		c15.08-6.91,31.01-11.31,47.36-13.93c1.04-0.17,1.57-1.36,1.17-2.59c-0.82-2.54-1.24-3.81-2.09-6.35
		C50.26,18.96,49.19,18.17,48.13,18.31z M364.03,22.68c4.98,0,8.08,2.15,8.08,8.15c0,5.21-2.45,9.65-8.14,9.65
		c-1.55,0-3.23-0.13-4.97-0.39V23.72C360.41,23.07,362.02,22.68,364.03,22.68z M216.92,22.81c4.52,0,7.1,3.13,7.1,8.48
		c0,5.61-2.58,8.54-7.1,8.54c-4.46,0-7.1-2.93-7.1-8.54C209.81,25.94,212.52,22.81,216.92,22.81z M271.38,22.81
		c4.52,0,7.1,3.13,7.1,8.48c0,5.61-2.58,8.54-7.1,8.54c-4.46,0-7.11-2.93-7.11-8.54C264.27,25.94,266.99,22.81,271.38,22.81z
		 M77.24,29.59h5.17c4.33,0,6.53,1.44,6.53,4.89c0,3.19-2.39,4.89-6.59,4.89h-5.1V29.59z M120.41,33.7h1.87v5.61
		c-0.97,0.85-3.04,1.63-5.56,1.63c-3.17,0-4.72-0.85-4.72-3.19C112.02,34.68,116.02,33.7,120.41,33.7z M419.59,33.7h1.87v5.61
		c-0.97,0.85-3.04,1.63-5.56,1.63c-3.17,0-4.72-0.85-4.72-3.19C411.19,34.68,415.2,33.7,419.59,33.7z M47.94,35.44
		c-10.04,2.18-19.85,4.8-29.57,8.15c-1.23,0.45-1.93,1.75-1.6,2.95c0.77,2.85,1.16,4.28,1.94,7.14c0.37,1.34,1.88,2.03,3.27,1.5
		c9.72-3.48,19.53-6.52,29.56-8.96c0.96-0.23,1.44-1.36,1.08-2.53c-0.79-2.57-1.19-3.85-2-6.41C50.21,36.04,49.04,35.21,47.94,35.44
		z">
  </path>
 </g>
</svg>